<svg xmlns="http://www.w3.org/2000/svg" id="flag-icons-iq" viewBox="0 0 640 480">
	<path fill="#fff" d="M0 0H640V480H0z"/>
	<path fill="#cd1125" d="M0 0H640V160H0z"/>
	<path fill="#000" d="M0 320H640V480H0z"/>
	<path fill="#017b3d" d="m316 274H212a15.5 15.0 0 0 1-19.7 13.0c14.6-8.1 13.7-16.2 4.5-34.4 5.1-2.1 5.9-2.6 11.1-6.5-3.9 12.5 9.5 11.0 19.2 11.0 0-4.4 0.4-9.3-2.8-10.0 3.8-1.5 4.1-2.0 10.1-7.7v16.8h72.1v-11.5a2.4 2.4 0 0 0-4.8 0v6.7a1.8 1.8 0 0 1-1.8 1.8H260v-10.9l41.3-44.8c-0.3 2.3 4.2 8.5 6.1 9.5-1.5 0.2-3.2 0-4.3 1.0l-33.8 36.7h37.5c0-9.8 8.6-9.8 11.9-13.2 4.0 3.5 11.9 3.5 11.9 13.2zm8.3 0V197c4.1 2.4 6.4 5.1 11.5 6.4-0.2 3.0-2.8 4.0-2.8 6.1v47.2c5.6 1.3 6.9-2.1 9.5-3.9 0.7 7.5 5.2 14.9 5.0 20.9zm75.8-51.2 8.9-7.9v41.2h6.3v-46.8c3.1-2.7 6.3-5.7 8.9-9.1v73.8h-55.7c-0.8-15.3-0.8-31.0 16.0-27.6v-6.2c0-1.5-2.1-0.3-2.1-1.6l11.5-10.2v27.8h6.3zm-2.9-21.1c-1.1 0.1-2.7-6.2-2.3-7.5 0.4-1.4 1.9-1.4 2.5-0.7 1.0 1.0 0.9 8.1-0.2 8.2zm-10.4 8.5c-3.1-1.9-2.6-2.7 0.1-1.9 4.8 1.5 7.2 0.2 10.6-3.5l2.6 1.4c3.4 1.8 5.4 1.0 6.6-3.3 0.3-1.3 1.4-1.0 1.7 0.5 1.1 6.1-3.3 7.9-7.7 6.2-2.4-0.8-2.8-0.8-4.0 0.1-2.6 2.2-6.4 2.5-9.9 0.4zm45.5 63.8V197c4.1 2.4 6.4 5.1 11.5 6.4-0.2 3.0-2.8 4.0-2.8 6.1v47.2c5.6 1.3 6.9-2.1 9.5-3.9 0.7 7.5 5.2 14.9 5.0 20.9zm-216.5 8.5a0.1 0.1 0 0 1 6.7 0 0.1 0.1 0 0 1-6.7 0zm163.4-27.9a2.6 2.1 0 0 0 5.1 0 2.6 2.1 0 0 0-5.1 0z"/>
</svg>