<svg xmlns="http://www.w3.org/2000/svg" id="flag-icons-tw" viewBox="0 0 640 480">
    <rect fill="#ec1e24" width="640" height="480"/>
    
    <rect fill="#2b2f84" width="320" height="240"/>
    
    <g transform="translate(160,120)">
        <circle r="42" fill="#fff"/>
        
        <circle r="38" fill="#2b2f84"/>
        
        <circle r="32" fill="#fff"/>
        
        <g fill="#fff">
            <polygon points="0,-85 10,-40 -10,-40"/>
            <polygon points="0,-85 10,-40 -10,-40" transform="rotate(30)"/>
            <polygon points="0,-85 10,-40 -10,-40" transform="rotate(60)"/>
            <polygon points="0,-85 10,-40 -10,-40" transform="rotate(90)"/>
            <polygon points="0,-85 10,-40 -10,-40" transform="rotate(120)"/>
            <polygon points="0,-85 10,-40 -10,-40" transform="rotate(150)"/>
            <polygon points="0,-85 10,-40 -10,-40" transform="rotate(180)"/>
            <polygon points="0,-85 10,-40 -10,-40" transform="rotate(210)"/>
            <polygon points="0,-85 10,-40 -10,-40" transform="rotate(240)"/>
            <polygon points="0,-85 10,-40 -10,-40" transform="rotate(270)"/>
            <polygon points="0,-85 10,-40 -10,-40" transform="rotate(300)"/>
            <polygon points="0,-85 10,-40 -10,-40" transform="rotate(330)"/>
        </g>
    </g>
</svg>