<svg xmlns="http://www.w3.org/2000/svg" id="flag-icons-xk" viewBox="0 0 640 480">
  <path fill="#244aa5" d="M0 0h640v480H0z"/>
  <path fill="#d0a650" d="m323.5 136.5c2.7 3.1 4.5 6.2 4.5 10-2.3 1.1-5.4 1.6-7.1 3.6 11.2-1.6 13.4 11.4 25.9 6.5.5 1.8 2.3 3.4 4.5 2.7l1.3-3.6c4.9-1.3 3.6 6.7 8.9 5.1 2.7 2.2.9 6 2.7 8.7 0 3.1 1.3 5.8 2.7 8.5 1.3-1.6 2.2-3.8 5.4-3.1 2.2 2.4 4 4.7 4.5 7.4-.9 5.1-2.3 9.6 3.1 12.3v1.6c3.6 1.6 11.6-1.6 11.6 4.7-.5 2.2 2.2.2 3.1 1.6 2.2-.9 5.4-.4 8-.4 2.2 4.7-2.7 8-4 12.3 2.2 2.2 1.3 6.2.9 8.9l-1.3.7c3.6.7 8-.4 11.2 1.6l5.8 2.2c2.7-1.6 5.8-1.8 9.4-1.6 2.7 2-.9 5.4 1.3 6.9 3.1 0 5.8.5 6.2 3.1l.5.9c2.2-4 8.5-1.3 11.2-4.2 4.5 0 5.4 4.9 7.6 7.6.9 6.9-7.6 10.1-4.9 17-1.8 3.4-5.4 6-8 9.2.9.5.4 1.6.4 2.2-2.7 1.6-.4 6.3-4 6.7-.4 2.9-5.8 1.8-4 4.9 3.6 4.7-1.8 7.6-1.8 11.9-2.3 2.5-6.7-2.3-6.7 2.5-2.7.7-5.4-2.5-7.1.2-.9 3.1 1.8 4.2 1.3 7.4 4.5-.5 5.8 4 7.6 6.7l4.5 4.5c-4.5 3.6-10.3-.5-15.6 1.6-1.3-.7 0-2.4-1.3-3.1-1.3-1.6-4-1.6-6.3-2 .4 2-3.6 2.7-1.8 5.1 0 .7.9 2.7-.9 2.7-3.6 1.1-3.1-3.1-6.3-1.6-4 1.6-.9 7.6-6.7 6.9.9 5.4-8.9 8.9-2.2 13.7.9.9.4 2.7.4 4-4 3.6-11.2 2.2-15.6.9-3.6-.9-1.3-5.4-2.7-7.8-1.3-2.3-5.4-3.8-5.4-6.9-2.7-1.1-4.9-1.8-6.7-4-6.3 6-13.9 11.9-22.8 12.1-4 2-6.3 10.1-12.5 6.7-2.4 4-9.8 0-10.3 5.8-2.9 1.1-1.6 4.9-3.4 6.7-.7 4.5 0 8.3 3.8 11 1.6 3.4-3.4 3.4-1.3 6.5.5 1.1 0 2.7-.7 3.1-1.3.7-1.8 1.3-1.3 2.7-1.1 0-1.6.7-2.5 1.6-1.1 2.2-4.7 3.4-7.1 4.9-2.5.7-4.3-1.1-5.8-2.7-.5 2.5-2.5 3.8-4.9 3.8-3.6 0-2.9-3.1-5.6-4.5 1.1-4-2.5-5.8-1.3-9.4 2.9-2.2 7.8-3.8 6.5-8.5-3.1-3.8-2-9.4-5.1-13.9-2-1.8-5.4-4.5-4.3-8.7 2.9-3.4 0-7.4-1.6-11-.7-2.9-2.5-5.6-2.5-9-4.9-2.9-5.1-10.5-12.1-11.2-4.9 0-5.8-6.3-10.7-5.8-.5-.9-1.6-1.6-2.5-2.4-3.6 2.4-8-.7-12.5.4-2.9-4.9 2.5-11.6-5.4-14.5v-3.1c.9.4 1.3-.5 1.6-.9.4-3.4-5.6-3.8-3.1-7.6-1.3-1.1-2.9-1.6-2-3.8-3.4-6.9-13.4-6.3-15.6-13.2 1.8-1.6 1.8-3.1 2.4-4.5-1.6-2.7-2-5.6-1.6-8.5 1.6-.5 2.5-2.5 3.4-4-2-1.3-4.5-3.4-6.7-2.7-4-.7-6.9-3.8-10.5-5.6-.9-.9-.4-2.5-.4-3.6 4.9-1.6-.7-8.5 5.4-7.6 1.6-2 4.9-2.7 7.4-4.3 2.5-.4 4.5.5 6.9 1.1 2 2.7 5.6 1.6 7.6 3.8 2-.5 4.5-1.6 6.9-.5 0-3.8 1.8-6 4.5-8.7.4-1.6 2.9-2.7 4.9-3.6 3.8.9 8.3.9 11-1.8 1.8 1.1 3.4-1.1 5.4-1.1 2.4-.5 4.5.2 6.3 1.3.2-4.5 8-.7 9.6-6 1.8-3.6-4.9-4.9-4.5-8.1-1.1-3.6 1.6-5.4 2.9-7.8 1.6-.7 3.4-1.6 5.4-1.1 5.1-1.8 1.1-12.3 9.4-8.5 0 1.1-.5 2.5.2 2.7 2.9 0 3.4-3.4 5.4-4.5.9-3.1-1.1-6.9 1.6-9.4 1.3-.2 2.5-.7 3.4-1.8 0-2.5-1.3-3.8-3.4-5.4-.7 1.1-2.5.2-3.6.7 0-2.7-1.6-4.5-2-6.9-1.3-.7-2-1.8-1.6-3.4 2-2 0-6.9 4.7-5.8 1.8-1.6 4.9-.4 6.7-3.1 4.7-2.7 11-2.7 14.5-7.6 1.6.2 3.4-1.3 4.9 0 .4 2.9 4.7 1.8 4.7 4.5"/>
  <path fill="#fff" d="m358.1 79.5-6.2-19-6.1 19h-20l16.2 11.8-6.2 19 16.1-11.8 16.2 11.8-6.2-19 16.2-11.8z"/>
  <path fill="#fff" d="m421.1 90.1-6.2-18.9-6.1 18.9h-20l16.2 11.7-6.2 19 16.1-11.7 16.2 11.7-6.2-19 16.2-11.7z"/>
  <path fill="#fff" d="m481.1 112.1-6.1-18.9-6.2 18.9h-20l16.2 11.7-6.2 19 16.2-11.7 16.1 11.7-6.2-19 16.2-11.7z"/>
  <path fill="#fff" d="m294.5 79.5-6.1-19-6.2 19h-20l16.2 11.8-6.2 19 16.2-11.8 16.1 11.8-6.2-19 16.2-11.8z"/>
  <path fill="#fff" d="m231.6 90.1-6.1-18.9-6.2 18.9h-20l16.2 11.7-6.2 19 16.2-11.7 16.1 11.7-6.2-19 16.2-11.7z"/>
  <path fill="#fff" d="m171.7 112.1-6.2-18.9-6.1 18.9h-20l16.2 11.7-6.2 19 16.1-11.7 16.2 11.7-6.2-19 16.2-11.7z"/>
</svg>
